<?xml version="1.0" ?><svg data-name="Layer 1" id="Layer_1" viewBox="0 0 185 185" xmlns="http://www.w3.org/2000/svg"><defs><style>.cls-1{fill:#d9e2e9;}.cls-2{fill:#e8c79c;}.cls-3{fill:#00063c;}.cls-4{fill:#2f3a5a;}.cls-5{fill:#8fb6f8;}.cls-6{fill:#6c95f8;}.cls-7{fill:#e51b3a;}.cls-8{fill:#d0aa79;}.cls-9{fill:#39476b;}.cls-10{fill:#566ef5;}.cls-11{fill:#fc3133;}.cls-12{fill:#8ae0a1;}</style></defs><title/><circle class="cls-1" cx="92.5" cy="92.5" r="90"/><path class="cls-2" d="M88.91,113.62,85.59,97.27s-22.33-.34-23.46,0L34.82,101.6l.48,7.24s12.69,5.74,25.14.65C60.44,109.49,69.93,109.22,88.91,113.62Z"/><path class="cls-3" d="M88.91,114.37l-.17,0c-17.49-4-27-4.12-28.15-4.11-12.56,5.06-25.07-.48-25.6-.71a.77.77,0,0,1-.44-.64l-.47-7.24a.74.74,0,0,1,.63-.79L62,96.49c1.07-.29,18.33,0,23.59,0a.76.76,0,0,1,.73.6l3.31,16.35a.77.77,0,0,1-.21.69A.78.78,0,0,1,88.91,114.37Zm-28.08-5.64c2,0,10.94.23,27.11,3.9L85,98c-8.49-.12-21.67-.25-22.67-.05l-26.69,4.28.4,6.09c2.25.9,13.37,4.87,24.13.46a.86.86,0,0,1,.27-.05Z"/><path class="cls-4" d="M26.82,87.34l2.83-.11c-.13,0-1.09.43-.44,10.12l.85,7.72a.57.57,0,0,0,.33.46l1.5.73h0l.43,4.91-.23,0a13.36,13.36,0,0,1-4.57-.34c-.15,0-1.53-7.75-1.76-18.16,0,0-.31-4.8,1.06-5.35Z"/><path class="cls-3" d="M30.87,112a13.88,13.88,0,0,1-3.58-.43c-.44-.15-.68-.23-1.36-5.82-.35-2.88-.8-7.48-.92-13-.1-1.57-.16-5.37,1.53-6.06a.74.74,0,0,1,.25,0l2.83-.11a.74.74,0,0,1,.78.69.76.76,0,0,1-.32.67c-.15.34-.62,2-.12,9.46l.84,7.6,1.41.68a.75.75,0,0,1,.42.61l.44,4.91a.75.75,0,0,1-.67.81l-.23,0C31.74,112,31.3,112,30.87,112Zm-2.74-1.76a14.84,14.84,0,0,0,3.38.25l-.33-3.74-1.12-.54a1.34,1.34,0,0,1-.74-1.06l-.86-7.71c-.35-5.29-.25-8,0-9.42L27,88.08c-.36.37-.67,2.37-.53,4.56A111.25,111.25,0,0,0,28.13,110.24Z"/><path class="cls-5" d="M29.67,87.22s.63-.11,1.19.79a3.36,3.36,0,0,1,.38.74c.06.19.14.4.23.64s.07.2.11.3l0,0,.08.2.09.23a1.21,1.21,0,0,1,.05.14,1.67,1.67,0,0,1,.08.2l.11.26c.07.18.15.36.22.53l.09.21c.08.22.17.42.24.6l.06.12s0,.08,0,.11a1,1,0,0,1,.05.12l0,.07,0,.1c0,.11.08.19.1.24l0,0s4.57,6.64,4.73,7.3A4.15,4.15,0,0,1,37,102.1l-.12.25c-.27.55-1.93,3.17,0,5.51a2.89,2.89,0,0,0,1.06.8.66.66,0,0,1,.46.69c0,.36-1.34.81-2.81,1.18l-.12,0-.42.11-.18,0-.57.12-.22,0-.13,0-.74.14c-.28,0-.55.09-.78.11l-.4-4.47a.75.75,0,0,0-.42-.62l-1-.49a.78.78,0,0,1-.42-.6l-.84-7.62c-.65-9.69.31-10.12.44-10.13Z"/><path class="cls-3" d="M32.33,111.91a.73.73,0,0,1-.47-.17.77.77,0,0,1-.28-.52l-.4-4.47-1-.51a1.49,1.49,0,0,1-.84-1.19l-.84-7.62c-.72-10.75.42-10.88,1.1-11h.07a2,2,0,0,1,1.86,1.15,4.59,4.59,0,0,1,.45.89c.06.18.13.39.22.62l.3.77-.65.41.7-.29.37.93-.63.44.7-.29.3.72-.64.41.68-.29.06.13s.06.15.07.16l-.67.35.71-.25.08.18A75.58,75.58,0,0,1,38.37,100c.14.58-.16,1.22-.7,2.31l-.26.52c-.63,1.18-1.32,2.93,0,4.52a2.1,2.1,0,0,0,.79.59,1.37,1.37,0,0,1,.89,1.48c-.07.52-.39,1.05-3.36,1.8l-.7.17-.63.13-.23,0-.27-.71.14.74-.76.14-.81.12ZM30,88.12c-.19.75-.45,3,0,9.18l.84,7.58,1,.51a1.5,1.5,0,0,1,.85,1.22l.32,3.68.7-.12.15,0,.19,0,.56-.12.7-.17a12.68,12.68,0,0,0,1.94-.61,3.51,3.51,0,0,1-1.05-.87c-1.35-1.69-1.39-3.76-.11-6.17l.2-.4a8.91,8.91,0,0,0,.62-1.39c-.32-.67-2.56-4-4.61-7a.54.54,0,0,1-.07-.13l0-.11-.08-.18.65-.39-.69.3L32,92.61l.66-.38-.72.24-.33-.8-.06-.15-.38-.92s-.06-.15-.06-.16l-.31-.79c-.09-.24-.17-.47-.23-.66a2.41,2.41,0,0,0-.28-.53A1.87,1.87,0,0,0,30,88.12Z"/><path class="cls-3" d="M29.67,88h0a.75.75,0,0,1-.72-.71.74.74,0,0,1,.7-.79.55.55,0,0,1,.18,0A.75.75,0,0,1,29.67,88Z"/><path class="cls-2" d="M135.36,70.22c.74-6.33-.46-19.18-.46-19.18s6-9.23,4.64-11.33c-.85-1.31-2.9-1.71-4.32-1.83A1,1,0,0,0,134.16,39c.16,2-1.07,5.58-1.07,5.58-.31-.62-1.1-1.91-1.67-2.82a1.28,1.28,0,0,0-1.71-.42,1.25,1.25,0,0,0-.53,1.61,24.32,24.32,0,0,1,1.38,6.41c-3.76,5.25-3.25,16-2.89,18.58-5.57,23.47-3.21,12.9-1.52,24.21l11.19,6.78C138.11,94.63,135.36,70.22,135.36,70.22Z"/><path class="cls-3" d="M137.34,99.65a.79.79,0,0,1-.39-.11l-11.19-6.78a.73.73,0,0,1-.35-.53A20.93,20.93,0,0,0,124,86.57c-.94-2.31-.94-2.31,2.47-16.68l.48-2c-.36-2.82-.84-13.24,2.88-18.74a22.37,22.37,0,0,0-1.3-5.91,2,2,0,0,1,3.56-1.89l.83,1.33a12.61,12.61,0,0,0,.53-3.63,1.74,1.74,0,0,1,.51-1.4,1.71,1.71,0,0,1,1.36-.5c1.68.14,3.89.63,4.89,2.17a3.48,3.48,0,0,1,.08,2.81,41.66,41.66,0,0,1-4.58,9.11c.16,1.87,1.11,13.09.45,19,.2,1.83,2.72,24.57,2,28.81a.72.72,0,0,1-.43.55A.67.67,0,0,1,137.34,99.65Zm-10.5-8,9.87,6c.27-6.21-2.07-27.11-2.09-27.34a.48.48,0,0,1,0-.17c.71-6.14-.42-18.49-.47-19a.75.75,0,0,1,.12-.48c2.72-4.16,5.3-9.5,4.64-10.51-.52-.8-1.86-1.34-3.76-1.49a.18.18,0,0,0-.17.06.23.23,0,0,0-.08.21,18.82,18.82,0,0,1-1.1,5.89.75.75,0,0,1-1.38.1c-.23-.47-.81-1.45-1.64-2.76a.53.53,0,0,0-.7-.17.52.52,0,0,0-.22.65,24.41,24.41,0,0,1,1.45,6.66.81.81,0,0,1-.14.5c-3.63,5.07-3.08,15.68-2.75,18a.86.86,0,0,1,0,.28l-.51,2.16c-3.3,13.89-3.3,13.89-2.54,15.76A22.16,22.16,0,0,1,126.84,91.66Z"/><polygon class="cls-6" points="137.12 85.53 123.46 83.03 121.37 100.66 137.65 109 137.12 85.53"/><path class="cls-3" d="M137.65,109.75a.66.66,0,0,1-.34-.08L121,101.32a.75.75,0,0,1-.4-.75L122.72,83a.72.72,0,0,1,.3-.52.74.74,0,0,1,.58-.13l13.65,2.49a.77.77,0,0,1,.62.72L138.4,109a.77.77,0,0,1-.35.65A.73.73,0,0,1,137.65,109.75Zm-15.48-9.52,14.7,7.53-.49-21.6-12.27-2.24Z"/><path class="cls-7" d="M97.85,109.2l9-12.63c-4.81-.63-30,.17-30,.17-.15,0-.14,16-.14,16s14.61,4.59,26.15-1.43a3.6,3.6,0,0,0,.86-.71Z"/><path class="cls-3" d="M88.75,115.21a44.53,44.53,0,0,1-12.31-1.73.74.74,0,0,1-.52-.71C75.9,96,75.9,96,76.77,96c1,0,25.36-.8,30.18-.17a.76.76,0,0,1,.59.45.71.71,0,0,1-.08.73L99.1,108.73l4.76,1.17a.75.75,0,0,1,.37,1.24,4,4,0,0,1-1.06.86A31.13,31.13,0,0,1,88.75,115.21Zm-11.33-3c2.63.71,14.66,3.54,24.48-1.24l-4.23-1a.75.75,0,0,1-.52-.47.74.74,0,0,1,.09-.7l8.24-11.56c-6.13-.36-24.25.16-28,.27C77.44,99.61,77.42,106.93,77.42,112.2Z"/><path class="cls-2" d="M85.27,115.77l-.93-15.19s-22.45-.74-23.58-.47L33.57,105l.47,7.09s13.78,3.41,26.26-1.18C60.3,110.88,66.34,112.05,85.27,115.77Z"/><path class="cls-8" d="M85.27,115.77c-18.93-3.72-25-4.89-25-4.89C47.83,115.47,34,112.06,34,112.06L33.58,105l.29,0,.17,2.67S47.83,111,60.3,106.44c0,0,6,1.14,24.7,4.83Z"/><path class="cls-3" d="M85.27,116.52h-.15c-17-3.34-23.57-4.62-24.76-4.85-12.49,4.51-25.93,1.27-26.5,1.13a.75.75,0,0,1-.57-.68L32.82,105a.75.75,0,0,1,.62-.79l27.19-4.85c1.1-.27,18.44.28,23.73.45a.74.74,0,0,1,.72.7L86,115.72a.74.74,0,0,1-.26.61A.69.69,0,0,1,85.27,116.52Zm-25-6.39.14,0s5.84,1.12,24,4.7l-.83-13.54c-8.84-.29-21.7-.64-22.71-.46l-26.56,4.74.39,5.86c2.63.55,14.54,2.68,25.29-1.27A.75.75,0,0,1,60.3,110.13Z"/><path class="cls-4" d="M25.58,90.83l2.83-.11c-.13,0-1.09.44-.44,10.13l.85,7.71a.55.55,0,0,0,.33.47l1.49.73h0l.44,4.91-.23,0a13.6,13.6,0,0,1-4.57-.34c-.15,0-1.54-7.75-1.77-18.16,0,0-.31-4.8,1.07-5.36Z"/><path class="cls-3" d="M29.62,115.5a13.85,13.85,0,0,1-3.57-.43c-.45-.15-.69-.23-1.37-5.82-.35-2.88-.79-7.48-.92-13-.1-1.57-.16-5.37,1.54-6.06a.7.7,0,0,1,.25,0L28.38,90a.73.73,0,0,1,.77.69.76.76,0,0,1-.32.67c-.14.34-.61,2-.12,9.46l.84,7.6,1.42.68a.75.75,0,0,1,.42.61l.43,4.91a.75.75,0,0,1-.66.81l-.23,0C30.5,115.48,30.06,115.5,29.62,115.5Zm-2.74-1.76a14.84,14.84,0,0,0,3.38.25l-.33-3.74-1.11-.54a1.33,1.33,0,0,1-.75-1.06l-.85-7.71c-.35-5.29-.26-8,0-9.42l-1.43.06c-.37.37-.68,2.37-.54,4.56A113.93,113.93,0,0,0,26.88,113.74Z"/><path class="cls-5" d="M28.42,90.72s.64-.11,1.19.79a3.36,3.36,0,0,1,.38.74c.06.19.14.4.23.64a2.65,2.65,0,0,1,.11.3l0,0c0,.06.05.13.07.2l.09.23.06.14.08.2c0,.09.07.18.11.26l.21.53.09.21c.09.22.17.42.25.6l.05.12a1.17,1.17,0,0,0,.05.11l0,.12,0,.07a1,1,0,0,0,0,.1c.05.11.08.19.1.24l0,0s4.58,6.64,4.74,7.3a4.42,4.42,0,0,1-.69,1.88c0,.08-.08.17-.13.25-.27.55-1.92,3.17,0,5.51a3.07,3.07,0,0,0,1.06.8.67.67,0,0,1,.47.69c-.06.36-1.35.81-2.81,1.18l-.12,0-.43.1-.17,0-.57.12-.22,0-.14,0-.73.14-.79.11-.39-4.47a.78.78,0,0,0-.43-.62l-1-.49a.78.78,0,0,1-.42-.61L28,100.85c-.64-9.69.31-10.12.44-10.13Z"/><path class="cls-3" d="M31.08,115.4a.74.74,0,0,1-.47-.16.72.72,0,0,1-.27-.52l-.4-4.47-1-.51a1.5,1.5,0,0,1-.84-1.19l-.84-7.62c-.72-10.75.42-10.88,1.1-11h.07a2,2,0,0,1,1.85,1.15,3.69,3.69,0,0,1,.45.89c.06.18.14.39.22.62l.3.77-.64.41.69-.29.74,1.8-.64.41.69-.29a.59.59,0,0,1,.06.14.84.84,0,0,1,.06.14l-.66.37.71-.26.07.18c2.1,3.07,4.67,6.88,4.83,7.53s-.17,1.22-.71,2.31l-.26.52c-.63,1.18-1.32,2.93,0,4.52a2.1,2.1,0,0,0,.79.59A1.37,1.37,0,0,1,37.8,113c-.08.52-.39,1.05-3.37,1.8l-.75.18c-.18,0-.38.09-.58.12l-.22,0-.13,0-.76.14-.82.12ZM28.75,91.62c-.18.75-.45,3,0,9.18l.84,7.58,1,.51a1.49,1.49,0,0,1,.84,1.22l.33,3.68.7-.12.14,0,.19,0,.57-.13.7-.16A13.5,13.5,0,0,0,36,112.7a3.51,3.51,0,0,1-1-.87c-1.36-1.69-1.39-3.76-.11-6.17l.2-.4a7.85,7.85,0,0,0,.61-1.39c-.32-.67-2.55-4-4.61-7L31,96.7l.64-.4-.69.3-.07-.18-.06-.14-.1-.24-.06-.14-.56-1.34,0-.1-.14-.36,0-.1-.33-.84-.24-.67A2.39,2.39,0,0,0,29,92,1.49,1.49,0,0,0,28.75,91.62Z"/><path class="cls-3" d="M28.43,91.47h0a.75.75,0,0,1-.07-1.5,1,1,0,0,1,.29,0,.75.75,0,0,1-.18,1.48Z"/><path class="cls-2" d="M160,93.71l-4.53-1.62-1.45.59A32.67,32.67,0,0,0,151,90.82c-1.34-.66-1.62.24-1.91,1.47,0,0-1.49-.1-1.81.79,0,0-1-1.68-1.89.09,0,0-.57.52-1.56-.17s-2.36.73-2.44,2.81a23,23,0,0,0,.08,3.27l-6.8-.74,2,14.52s8.73-2.94,10.26-3.15a8.35,8.35,0,0,1,4,.19c2.25.94,4.9,1.79,7,1.25s4.28,0,6.31-3,.15-11.69.57-13.4S160,93.71,160,93.71Z"/><path class="cls-3" d="M136.66,113.61a.8.8,0,0,1-.4-.11.75.75,0,0,1-.34-.54l-2-14.52a.74.74,0,0,1,.21-.62.69.69,0,0,1,.62-.22l5.91.64c0-.58,0-1.41,0-2.46a4.07,4.07,0,0,1,1.81-3.5,1.71,1.71,0,0,1,1.8.1,1.1,1.1,0,0,0,.59.23,1.75,1.75,0,0,1,1.44-1,1.48,1.48,0,0,1,1,.35,2.87,2.87,0,0,1,1.22-.4A2.26,2.26,0,0,1,149.58,90a2,2,0,0,1,1.75.17,31.34,31.34,0,0,1,2.82,1.68l1.08-.43a.75.75,0,0,1,.53,0l4.37,1.55c1.35-.16,4.18-.36,5.12.7a1.35,1.35,0,0,1,.31,1.28,18.21,18.21,0,0,0,.14,3.29c.29,3.42.7,8.1-.81,10.35a6.46,6.46,0,0,1-5.34,3.07c-.5.07-1,.13-1.42.24-2.45.63-5.44-.43-7.48-1.28a7.4,7.4,0,0,0-3.62-.14c-1.2.16-7.72,2.31-10.13,3.12A.67.67,0,0,1,136.66,113.61Zm-1.12-14.42,1.74,12.67c2.32-.77,8.22-2.71,9.54-2.9a8.75,8.75,0,0,1,4.41.25c1.84.77,4.51,1.72,6.53,1.21a13.44,13.44,0,0,1,1.6-.28,5,5,0,0,0,4.28-2.41c1.22-1.82.82-6.38.56-9.39a15.1,15.1,0,0,1-.1-3.78c-.27-.25-2.17-.34-4-.11a.82.82,0,0,1-.35,0l-4.26-1.52-1.19.48a.73.73,0,0,1-.71-.08,30.55,30.55,0,0,0-3-1.8.92.92,0,0,0-.46-.14,3.75,3.75,0,0,0-.38,1.12A.75.75,0,0,1,149,93c-.36,0-1,.08-1,.29a.76.76,0,0,1-.64.5.78.78,0,0,1-.72-.37,1.11,1.11,0,0,0-.32-.35s-.11.12-.26.41a.78.78,0,0,1-.16.21,2,2,0,0,1-2.49-.11c-.05,0-.11-.08-.27,0a2.66,2.66,0,0,0-1,2.21,25.16,25.16,0,0,0,.07,3.16.71.71,0,0,1-.21.62.74.74,0,0,1-.61.22Z"/><path class="cls-9" d="M160,93.71s1,1.27,0,4-2.65,3.67-4.64,3.43a20.08,20.08,0,0,0-2.89-.2l-.2,1.44s3,.64,2.95,2.34-1.71,2.4-4.09,2.38-3.76-.14-4.18,1.79a3.84,3.84,0,0,0-.09.83,8.35,8.35,0,0,1,4,.19c2.25.94,4.9,1.79,7,1.25s4.28,0,6.31-3,.15-11.69.57-13.4S160,93.71,160,93.71Z"/><path class="cls-4" d="M164.27,108.14c-2.05,3-4.22,2.47-6.32,3s-4.76-.32-7-1.25a8.32,8.32,0,0,0-4-.19,3.77,3.77,0,0,1,.08-.83c.33-1.55,1.3-1.77,2.89-1.8a9.5,9.5,0,0,0,5.06.53c2.1-.55,4.28,0,6.32-3,1.53-2.29.85-7.73.58-11,1.45,0,3.23.14,3,1.16C164.41,96.45,166.3,105.1,164.27,108.14Z"/><path class="cls-3" d="M156.52,112.06a16.2,16.2,0,0,1-5.87-1.47,7.4,7.4,0,0,0-3.62-.14.76.76,0,0,1-.86-.74,4.57,4.57,0,0,1,.11-1c.53-2.41,2.39-2.39,4.54-2.37h.38c1.53,0,3.3-.27,3.33-1.64,0-.81-1.58-1.43-2.36-1.6a.75.75,0,0,1-.58-.84l.2-1.43a.75.75,0,0,1,.7-.65,20.72,20.72,0,0,1,3,.21c1.8.21,3.06-.75,3.84-2.94s.12-3.26.09-3.3A.76.76,0,0,1,160,93c1.26-.16,4.31-.43,5.3.68a1.35,1.35,0,0,1,.31,1.28,18.21,18.21,0,0,0,.14,3.29c.29,3.42.7,8.1-.81,10.35a6.46,6.46,0,0,1-5.34,3.07c-.5.07-1,.13-1.42.24A6.17,6.17,0,0,1,156.52,112.06Zm-7.7-3.25a6.16,6.16,0,0,1,2.41.4c1.84.77,4.51,1.72,6.53,1.21a13.44,13.44,0,0,1,1.6-.28,5,5,0,0,0,4.28-2.41c1.22-1.82.82-6.38.56-9.39a15.1,15.1,0,0,1-.1-3.78,7.12,7.12,0,0,0-3-.21,6.25,6.25,0,0,1-.34,3.6c-1,2.83-3,4.23-5.44,3.93-1-.12-1.7-.17-2.15-.19l0,.13c1.06.35,2.91,1.2,2.87,2.91,0,.94-.52,3.11-4.76,3.11h-.46c-2.22,0-2.76.06-3,1C148.15,108.83,148.5,108.81,148.82,108.81Z"/><path class="cls-6" d="M136.44,99c-1.8-2.45-4.85-4.88-10.81-6a22.89,22.89,0,0,0-7-.24,68.72,68.72,0,0,0-15.67,4L100,99l1.18,17.56c.3,0,16.25.64,25.19-.51,5-.34,9.61-1.14,12-4.32Z"/><path class="cls-10" d="M138.34,111.74c-2.37,3.17-7,4-12,4.32-8.93,1.15-24.9.52-25.19.51L100,99l.47-.36.7,10.35c.29,0,16.26.65,25.19-.5,4.4-.3,8.48-.95,11-3.25Z"/><path class="cls-3" d="M111.32,117.5c-5.58,0-10.12-.18-10.2-.18a.75.75,0,0,1-.7-.7L99.24,99.06a.77.77,0,0,1,.3-.65l3-2.25a.91.91,0,0,1,.17-.09,69.31,69.31,0,0,1,15.86-4,23.18,23.18,0,0,1,7.2.25c5.2,1,8.89,3.06,11.28,6.32a.81.81,0,0,1,.14.33l1.89,12.7a.74.74,0,0,1-.14.56c-2.59,3.48-7.56,4.28-12.53,4.62A130.25,130.25,0,0,1,111.32,117.5Zm-9.45-1.66c3.12.11,16.57.49,24.39-.52,4.54-.31,9-1,11.29-3.79l-1.82-12.19c-2.16-2.85-5.51-4.68-10.24-5.59a21.47,21.47,0,0,0-6.74-.23,68.61,68.61,0,0,0-15.39,3.9l-2.59,1.94Z"/><path class="cls-11" d="M75.34,114.7s19.42,4,27.36,1.78A133.83,133.83,0,0,1,103,96.76c0-.26-7.8,1.55-26.66,2.68C76.17,99.45,75.34,114.7,75.34,114.7Z"/><path class="cls-7" d="M102.7,116.48c-7.93,2.23-27.36-1.78-27.36-1.78s.17-3.25.37-6.76c3.4.66,19.65,3.63,26.73,1.64a113.32,113.32,0,0,1-.1-12.78q.66-.1.66,0A133,133,0,0,0,102.7,116.48Z"/><path class="cls-3" d="M96.17,117.91c-8.88,0-20.36-2.35-21-2.47a.76.76,0,0,1-.6-.78c.87-15.92.87-15.92,1.69-16,13.47-.81,21.3-2,24.64-2.45,2.15-.32,2.24-.33,2.56-.06a.8.8,0,0,1,.26.58,135.47,135.47,0,0,0-.29,19.66.75.75,0,0,1-.55.78A25.91,25.91,0,0,1,96.17,117.91Zm-20-3.82c3.3.64,18.62,3.44,25.79,1.82a141.15,141.15,0,0,1,.27-18.34l-1,.15c-3.31.49-11,1.62-24.15,2.43C76.8,102.16,76.39,109.22,76.12,114.09Z"/><path class="cls-2" d="M132.38,68.06c.74-6.33-.46-19.18-.46-19.18s6-9.23,4.64-11.33c-.85-1.31-2.9-1.71-4.32-1.83a1,1,0,0,0-1.06,1.09c.17,2-1.07,5.58-1.07,5.58-.31-.63-1.1-1.91-1.67-2.82a1.28,1.28,0,0,0-1.71-.43,1.26,1.26,0,0,0-.53,1.62,24.32,24.32,0,0,1,1.38,6.41c-3.76,5.25-3.25,16-2.89,18.58-5.57,23.47-3.2,12.9-1.52,24.21l11.19,6.78C135.13,92.47,132.38,68.06,132.38,68.06Z"/><path class="cls-3" d="M134.36,97.49a.79.79,0,0,1-.39-.11L122.78,90.6a.75.75,0,0,1-.35-.53A21.49,21.49,0,0,0,121,84.41c-.95-2.32-.95-2.32,2.46-16.66l.48-2c-.36-2.83-.83-13.25,2.88-18.75a22.72,22.72,0,0,0-1.29-5.9,2,2,0,0,1,3.55-1.89l.83,1.33a12.61,12.61,0,0,0,.53-3.63A1.75,1.75,0,0,1,132.3,35c1.68.14,3.89.63,4.89,2.17,1.42,2.19-2.56,8.91-4.5,11.93.17,1.9,1.12,13.06.45,19,.2,1.84,2.72,24.57,2,28.81a.73.73,0,0,1-.43.55A.67.67,0,0,1,134.36,97.49Zm-10.5-8,9.87,6c.27-6.21-2.07-27.11-2.09-27.34a.48.48,0,0,1,0-.17c.72-6.18-.46-18.89-.47-19a.74.74,0,0,1,.12-.48c3.16-4.88,5.24-9.59,4.64-10.51s-1.86-1.34-3.76-1.5a.19.19,0,0,0-.17.07.26.26,0,0,0-.08.21,18.82,18.82,0,0,1-1.1,5.89.75.75,0,0,1-.66.51.76.76,0,0,1-.72-.42c-.23-.46-.81-1.43-1.64-2.75a.52.52,0,0,0-.92.48,24.74,24.74,0,0,1,1.45,6.72.77.77,0,0,1-.14.44c-3.63,5.07-3.08,15.68-2.75,18a.67.67,0,0,1,0,.28l-.51,2.17c-3.3,13.88-3.3,13.88-2.54,15.75A22,22,0,0,1,123.86,89.5Z"/><polyline class="cls-6" points="134.67 106.84 134.14 83.37 120.48 80.87 118.39 98.5"/><path class="cls-3" d="M134.67,107.59a.74.74,0,0,1-.75-.73L133.4,84l-12.27-2.25-2,16.83a.75.75,0,1,1-1.49-.17l2.1-17.62a.72.72,0,0,1,.3-.52.75.75,0,0,1,.58-.13l13.65,2.49a.76.76,0,0,1,.62.72l.53,23.48a.75.75,0,0,1-.74.76Z"/><line class="cls-12" x1="22.01" x2="18.47" y1="116.81" y2="116.84"/><path class="cls-3" d="M18.47,117.83a1,1,0,0,1-1-1,1,1,0,0,1,1-1l3.54,0h0a1,1,0,0,1,1,1,1,1,0,0,1-1,1l-3.54,0Z"/><line class="cls-12" x1="163.64" x2="25.18" y1="116.04" y2="116.77"/><path class="cls-3" d="M25.18,117.77a1,1,0,1,1,0-2L163.63,115h0a1,1,0,0,1,1,1,1,1,0,0,1-1,1l-138.45.73Z"/></svg>