<?xml version="1.0" ?><svg data-name="Layer 1" id="Layer_1" viewBox="0 0 185 185" xmlns="http://www.w3.org/2000/svg"><defs><style>.cls-1{fill:#d9e2e9;}.cls-2{fill:#e8c79c;}.cls-3{fill:#00063c;}.cls-4{fill:#2f3a5a;}.cls-5{fill:#8fb6f8;}.cls-6{fill:#e51b3a;}.cls-7{fill:#d3b490;}.cls-8{fill:#d0aa79;}.cls-9{fill:#39476b;}.cls-10{fill:#6c95f8;}.cls-11{fill:#566ef5;}.cls-12{fill:#fc3133;}</style></defs><title/><circle class="cls-1" cx="92.5" cy="92.5" r="90"/><path class="cls-2" d="M91.33,103.58l-3.6-17.77s-24.27-.37-25.5,0L31,92.69l.52,7.87s15.38,4.07,28.91-1.47C60.38,99.09,70.7,98.8,91.33,103.58Z"/><path class="cls-3" d="M91.33,104.33l-.17,0c-19.07-4.42-29.35-4.5-30.63-4.47-13.57,5.49-28.61,1.61-29.25,1.44a.74.74,0,0,1-.55-.67l-.52-7.87a.74.74,0,0,1,.58-.78L62.06,85c1.24-.33,21.61,0,25.68,0a.75.75,0,0,1,.73.6l3.6,17.77a.75.75,0,0,1-.22.69A.78.78,0,0,1,91.33,104.33Zm-30.52-6c2.18,0,11.93.26,29.56,4.26l-3.25-16c-9.58-.14-23.64-.27-24.71-.06L31.75,93.28l.44,6.68c2.78.63,16.15,3.25,27.91-1.56a.58.58,0,0,1,.26-.06Z"/><path class="cls-4" d="M22.26,77.18l3.07-.12c-.14,0-1.18.47-.48,11l.93,8.38a.64.64,0,0,0,.35.51l1.63.79h0l.47,5.34-.25,0a15,15,0,0,1-5-.36c-.17-.06-1.67-8.44-1.92-19.75,0,0-.34-5.21,1.16-5.82Z"/><path class="cls-3" d="M26.65,103.93a15.24,15.24,0,0,1-3.87-.47c-.43-.15-.7-.23-1.43-6.27a141.64,141.64,0,0,1-1-14.18c-.11-1.69-.18-5.79,1.62-6.53a.75.75,0,0,1,.26,0l3.07-.12a.73.73,0,0,1,.78.69.75.75,0,0,1-.34.68c-.15.35-.69,2.16-.14,10.34l.92,8.29,1.57.76a.75.75,0,0,1,.42.61L29,103a.74.74,0,0,1-.66.81l-.26,0A13.18,13.18,0,0,1,26.65,103.93Zm-3-1.8a15.31,15.31,0,0,0,3.8.28l-.37-4.17-1.24-.6a1.37,1.37,0,0,1-.78-1.1l-.93-8.39c-.39-5.87-.26-8.81,0-10.29l-1.67.06c-.43.38-.78,2.54-.62,5A123.22,123.22,0,0,0,23.62,102.13Z"/><path class="cls-5" d="M25.35,77.05s.69-.12,1.29.86a3.37,3.37,0,0,1,.41.81l.25.69c0,.11.08.21.13.32a.14.14,0,0,0,0,.06l.09.22.09.25.06.16.09.21.12.29.23.57c0,.08.07.15.1.23.09.23.19.45.27.65a1.12,1.12,0,0,1,.05.13.67.67,0,0,0,.06.12.5.5,0,0,0,.05.13l0,.08,0,.11.11.26,0,0s5,7.22,5.15,7.93a4.66,4.66,0,0,1-.75,2c0,.09-.09.18-.14.27-.29.6-2.09,3.45-.05,6a3.08,3.08,0,0,0,1.15.87.73.73,0,0,1,.51.75c-.06.39-1.47.89-3.06,1.29l-.13,0-.46.11-.19,0-.62.13-.24,0-.15,0-.8.14c-.3.06-.59.1-.85.13l-.43-4.86a.82.82,0,0,0-.46-.67L26.23,97a.83.83,0,0,1-.46-.66l-.91-8.28c-.71-10.53.33-11,.48-11Z"/><path class="cls-3" d="M28.24,103.82a.72.72,0,0,1-.47-.16.77.77,0,0,1-.28-.52l-.43-4.86-1.16-.61A1.56,1.56,0,0,1,25,96.43l-.92-8.29c-.77-11.62.47-11.76,1.14-11.83h.06a2.17,2.17,0,0,1,2,1.22,3.9,3.9,0,0,1,.48,1c.07.19.15.42.25.67l.12.31,0,.12,1,2.5.06.13,0,.11,0,.1.05.11-.66.36.71-.25.11.26c1.84,2.66,5,7.37,5.21,8.11s-.2,1.33-.77,2.47L33.7,94c-.69,1.3-1.45,3.24,0,5a2.4,2.4,0,0,0,.88.66,1.43,1.43,0,0,1,.94,1.54c-.08.52-.43,1.1-3.62,1.91l-.1,0-.49.12-.18,0-.66.15-.26.05-.28-.71.15.73-.82.15c-.32.06-.62.11-.89.14Zm-2.57-25.9c-.2.72-.53,3-.06,10.09l.91,8.25,1.16.6a1.6,1.6,0,0,1,.88,1.28l.36,4.07h0l.79-.15.16,0,.21,0,.61-.13.17,0,.46-.11.14,0a15.05,15.05,0,0,0,2.24-.71,3.76,3.76,0,0,1-1.25-1c-1.45-1.81-1.49-4-.11-6.64l.22-.43a8,8,0,0,0,.68-1.58c-.18-.45-2.71-4.27-5-7.64a.83.83,0,0,1-.07-.13l-.13-.31L28,83.11l.65-.39L28,83a.37.37,0,0,1-.05-.11l0-.1.63-.43-.69.29-.81-2-.07-.17-.16-.42.66-.38-.7.28-.13-.33c-.1-.27-.19-.51-.26-.72a2.8,2.8,0,0,0-.3-.6A1.63,1.63,0,0,0,25.67,77.92Z"/><path class="cls-3" d="M25.35,77.55h0a.5.5,0,0,1-.49-.44.51.51,0,0,1,.44-.56h.15a.5.5,0,0,1-.08,1Z"/><path class="cls-6" d="M98.58,98.78,108.37,85c-5.23-.68-30.19.19-30.19.19-.17,0-.15,17.42-.15,17.42s13.42,5,26-1.55a3.72,3.72,0,0,0,.93-.77Z"/><path class="cls-3" d="M89.54,105.25a36.65,36.65,0,0,1-11.77-1.89.74.74,0,0,1-.49-.7c0-18.13,0-18.13.86-18.18,1,0,25.1-.86,30.33-.18a.75.75,0,0,1,.51,1.18L99.84,98.31l5.26,1.29a.74.74,0,0,1,.54.51.75.75,0,0,1-.17.73,4,4,0,0,1-1.13.92A31.74,31.74,0,0,1,89.54,105.25Zm-10.76-3.14c2.46.78,13.76,3.86,24.4-1.44L98.41,99.5a.75.75,0,0,1-.53-.46.76.76,0,0,1,.09-.7l9-12.67c-6.33-.4-24.41.16-28.12.29C78.8,88.22,78.77,96.33,78.78,102.11Z"/><path class="cls-2" d="M87.38,105.92l-1-16.51S62,88.6,60.73,88.9L29.59,96.35l.51,7.71s16.57,1.53,30.13-3.45C60.23,100.61,66.8,101.87,87.38,105.92Z"/><path class="cls-7" d="M87.37,105.92c-20.57-4-27.13-5.31-27.13-5.31-13.57,5-30.14,3.45-30.14,3.45l-.51-7.71.28,0,.23,3.43s16.57,1.52,30.14-3.46c0,0,6.51,1.25,26.87,5.25Z"/><path class="cls-3" d="M87.38,106.67h-.15c-18.52-3.65-25.69-5-26.93-5.28-13.54,4.91-30.1,3.44-30.27,3.43a.77.77,0,0,1-.68-.7l-.51-7.71a.75.75,0,0,1,.58-.78l31.14-7.45c1.27-.31,21.74.35,25.83.49a.73.73,0,0,1,.72.7l1,16.51a.77.77,0,0,1-.75.8ZM60.23,99.86h.15s6.36,1.23,26.19,5.13l-.91-14.87C76,89.82,62,89.44,60.9,89.63l-30.52,7.3.43,6.43c3.15.21,17.4.87,29.17-3.46A.73.73,0,0,1,60.23,99.86Z"/><path class="cls-4" d="M20.9,81,24,80.86c-.14,0-1.18.48-.48,11l.92,8.38a.66.66,0,0,0,.36.51l1.63.78h0l.47,5.34-.25,0a14.87,14.87,0,0,1-5-.37c-.17,0-1.67-8.43-1.92-19.75,0,0-.34-5.21,1.15-5.82Z"/><path class="cls-3" d="M25.3,107.74a14.68,14.68,0,0,1-3.87-.48c-.44-.14-.7-.23-1.44-6.27-.38-3.13-.86-8.13-1-14.17-.11-1.7-.18-5.8,1.62-6.53a1.1,1.1,0,0,1,.26-.06L24,80.11a.75.75,0,0,1,.44,1.38c-.16.34-.69,2.16-.14,10.34l.91,8.29,1.58.76a.76.76,0,0,1,.42.61l.47,5.33a.76.76,0,0,1-.67.82l-.25,0A13.18,13.18,0,0,1,25.3,107.74Zm-3-1.81a14.8,14.8,0,0,0,3.8.28L25.7,102l-1.24-.6a1.37,1.37,0,0,1-.78-1.1L22.75,92c-.39-5.88-.27-8.82,0-10.3l-1.68.07c-.46.4-.76,2.78-.62,5A122.51,122.51,0,0,0,22.27,105.93Z"/><path class="cls-5" d="M24,80.86s.69-.12,1.29.86a3.68,3.68,0,0,1,.41.8c.07.2.15.44.25.7l.12.32,0,.06c0,.07,0,.14.08.22a1.86,1.86,0,0,1,.1.25l.06.15.09.22c0,.09.08.19.11.28s.16.39.24.57l.09.23c.1.24.19.46.28.65l.05.14a.61.61,0,0,1,.05.12l.06.13,0,.07a1.17,1.17,0,0,0,.05.11c.05.12.08.21.11.26l0,0s5,7.22,5.14,7.94a4.63,4.63,0,0,1-.74,2l-.14.28c-.29.59-2.1,3.45-.05,6a3.11,3.11,0,0,0,1.15.87.71.71,0,0,1,.5.75c-.06.39-1.46.88-3.05,1.28l-.13,0-.46.11-.2,0-.61.13-.24,0-.15,0-.8.15-.85.13L26.46,102a.84.84,0,0,0-.46-.67l-1.12-.54a.81.81,0,0,1-.46-.65l-.92-8.28c-.7-10.54.34-11,.48-11Z"/><path class="cls-3" d="M26.89,107.63a.73.73,0,0,1-.47-.17.75.75,0,0,1-.28-.52l-.43-4.86-1.16-.6a1.57,1.57,0,0,1-.88-1.25L22.76,92c-.78-11.63.47-11.77,1.14-11.84h.17a2.21,2.21,0,0,1,1.86,1.22,4.75,4.75,0,0,1,.48,1l.24.68.12.3,0,.11,1,2.51.06.14,0,.11-.63.43.68-.31a1.39,1.39,0,0,1,.06.13l.1.24,0,.07c1.89,2.75,5,7.39,5.21,8.12s-.19,1.33-.76,2.47l-.28.55c-.69,1.31-1.45,3.24,0,5a2.4,2.4,0,0,0,.88.66,1.45,1.45,0,0,1,.94,1.54c-.08.52-.43,1.09-3.62,1.9l-.61.15-.2,0-.62.14-.25,0-.15,0-.81.15-.89.13ZM24.32,81.72c-.21.73-.54,3-.07,10.1l.92,8.25,1.15.6A1.55,1.55,0,0,1,27.2,102l.36,4.07h.05l.79-.14.15,0,.21,0,.62-.13.75-.18a14.17,14.17,0,0,0,2.25-.72,3.93,3.93,0,0,1-1.24-1c-1.46-1.82-1.49-4-.11-6.64l.22-.44a7.78,7.78,0,0,0,.68-1.58c-.19-.45-2.71-4.26-5-7.63a.61.61,0,0,1-.07-.14l.63-.42-.69.29L26.69,87l.65-.4-.69.29.64-.41-.69.29,0-.09,0-.12.64-.42-.69.3-1.21-3c-.1-.27-.19-.51-.26-.72a2.81,2.81,0,0,0-.31-.6A1.64,1.64,0,0,0,24.32,81.72Z"/><path class="cls-3" d="M24,81.36h0a.5.5,0,0,1,0-1,.6.6,0,0,1,.23,0,.5.5,0,0,1,.31.63A.5.5,0,0,1,24,81.36Z"/><path class="cls-2" d="M163.29,88.35l-4-2.68-1.57.22a31.31,31.31,0,0,0-2.55-2.57c-1.15-1-1.64-.16-2.23,1,0,0-1.44-.46-2,.33,0,0-.55-1.88-1.88-.37,0,0-.68.37-1.49-.55s-2.5.15-3.07,2.17a24.23,24.23,0,0,0-.72,3.23l-6.49-2.39-1.59,14.73s9.28-.76,10.84-.6a8.45,8.45,0,0,1,3.89,1.17c2,1.47,4.37,3,6.57,2.93s4.19,1.08,6.93-1.41,3-11.43,3.81-13S163.29,88.35,163.29,88.35Z"/><path class="cls-8" d="M163.92,103.54c-2.74,2.49-4.74,1.39-6.93,1.41s-4.59-1.46-6.57-2.94a8.56,8.56,0,0,0-3.89-1.16c-1.55-.16-10.84.6-10.84.6l1.59-14.72.55.2L136.7,97.38s9.29-.76,10.83-.59a8.45,8.45,0,0,1,3.9,1.16c2,1.47,4.38,3,6.57,2.93s4.19,1.08,6.93-1.41a7,7,0,0,0,1.63-2.86C166.05,99.38,165.31,102.28,163.92,103.54Z"/><path class="cls-3" d="M160,105.93a13.49,13.49,0,0,1-1.59-.12,11.93,11.93,0,0,0-1.44-.11H157c-2.54,0-5.2-1.76-7-3.08a7.69,7.69,0,0,0-3.53-1c-1.22-.14-8.13.39-10.69.6a.74.74,0,0,1-.6-.23.71.71,0,0,1-.21-.6l1.58-14.73a.73.73,0,0,1,.35-.55.75.75,0,0,1,.65-.07l5.65,2.07c.11-.57.3-1.39.59-2.42a4.09,4.09,0,0,1,2.62-3,1.72,1.72,0,0,1,1.73.54.93.93,0,0,0,.53.36A1.75,1.75,0,0,1,150.3,83a1.52,1.52,0,0,1,.89.58,3,3,0,0,1,1.31-.09,2.26,2.26,0,0,1,1.43-1.28,2,2,0,0,1,1.68.58A28.74,28.74,0,0,1,158,85.09l1.17-.16a.73.73,0,0,1,.52.11l3.91,2.59c1.16.15,4.17.64,4.85,1.93a1.38,1.38,0,0,1,0,1.32,18,18,0,0,0-.67,3.27c-.54,3.42-1.28,8.1-3.31,9.94A6.14,6.14,0,0,1,160,105.93Zm-3-1.73a13,13,0,0,1,1.56.12,5.09,5.09,0,0,0,4.8-1.33c1.64-1.49,2.36-6.06,2.84-9.08a14.84,14.84,0,0,1,.82-3.72c-.2-.32-2.08-.89-3.86-1.09a.77.77,0,0,1-.33-.12l-3.82-2.53-1.28.18a.77.77,0,0,1-.67-.25,32.22,32.22,0,0,0-2.48-2.49c-.29-.24-.42-.25-.42-.25a3.75,3.75,0,0,0-.65,1,.76.76,0,0,1-.9.37c-.36-.12-1-.16-1.11,0a.77.77,0,0,1-.74.33.76.76,0,0,1-.6-.54,1.16,1.16,0,0,0-.24-.42,2.77,2.77,0,0,0-.36.34.83.83,0,0,1-.21.16,2,2,0,0,1-2.4-.71.25.25,0,0,0-.28-.07,2.7,2.7,0,0,0-1.51,1.94,22.92,22.92,0,0,0-.7,3.12.79.79,0,0,1-.35.55.75.75,0,0,1-.65.06l-5.59-2-1.38,12.87c2.46-.19,8.73-.66,10.07-.52a8.74,8.74,0,0,1,4.26,1.31c1.61,1.19,4,2.78,6.08,2.78Z"/><path class="cls-9" d="M163.29,88.35s.65,1.5-.95,3.92-3.5,3-5.39,2.24a20.56,20.56,0,0,0-2.79-.9L153.62,95s2.77,1.36,2.32,3-2.26,1.93-4.59,1.34-3.65-1-4.54.73a4.36,4.36,0,0,0-.28.79,8.45,8.45,0,0,1,3.89,1.17c2,1.47,4.37,3,6.57,2.93s4.19,1.08,6.93-1.41,3-11.43,3.81-13S163.29,88.35,163.29,88.35Z"/><path class="cls-4" d="M163.92,103.54c-2.74,2.49-4.74,1.39-6.93,1.41s-4.59-1.46-6.57-2.94a8.56,8.56,0,0,0-3.89-1.16,3,3,0,0,1,.29-.79c.62-1.26,1.46-1.4,2.74-1.16,1.89,1.39,4.15,2.69,6.22,2.68s4.19,1.08,6.94-1.41c2.17-2,2.78-8.07,3.36-11.25,1.1.35,2,.88,1.65,1.62C166.91,92.11,166.66,101.05,163.92,103.54Z"/><path class="cls-3" d="M160,105.93a13.49,13.49,0,0,1-1.59-.12,11.93,11.93,0,0,0-1.44-.11H157c-2.54,0-5.2-1.76-7-3.08a7.69,7.69,0,0,0-3.53-1,.71.71,0,0,1-.53-.32.73.73,0,0,1-.12-.61,4.35,4.35,0,0,1,.34-.94c1.11-2.23,2.92-1.77,5-1.22l.37.09c1.48.38,3.32.54,3.68-.8.21-.8-1.21-1.8-1.93-2.16a.75.75,0,0,1-.37-1l.55-1.36a.74.74,0,0,1,.84-.45,19.74,19.74,0,0,1,2.9.93c1.73.65,3.2,0,4.5-2s.91-3.17.89-3.22a.75.75,0,0,1,.78-1c1,.11,4.31.59,5,2a1.38,1.38,0,0,1,0,1.32,18,18,0,0,0-.67,3.27c-.54,3.42-1.28,8.1-3.31,9.94A6.14,6.14,0,0,1,160,105.93Zm-3-1.73a13,13,0,0,1,1.56.12,5.09,5.09,0,0,0,4.8-1.33c1.64-1.49,2.36-6.06,2.84-9.08a14.84,14.84,0,0,1,.82-3.72,7.11,7.11,0,0,0-2.89-1A6.39,6.39,0,0,1,163,92.69c-1.67,2.53-3.9,3.42-6.28,2.52-.94-.36-1.63-.58-2.07-.7l-.05.13c.94.59,2.56,1.88,2.11,3.55-.25.92-1.28,2.94-5.5,1.86l-.37-.09c-2.18-.56-2.74-.61-3.23.27a7.64,7.64,0,0,1,3.3,1.19c1.62,1.2,4,2.77,6.11,2.78Z"/><path class="cls-10" d="M138.07,87.73c-2-2.66-5.21-5.69-11.75-6.55s-22.14,4.08-22.14,4.08l-3.27,2.43,1.28,19.1c.33,0,15.2.7,24.92-.55,5.45-.38,10.45-1.25,13-4.7Z"/><path class="cls-11" d="M140.13,101.53c-2.58,3.47-7.57,4.33-13,4.7-9.71,1.25-24.58.58-24.91.56l-.4-5.91c2.92.13,15.66.53,24.32-.57,5.45-.38,10.45-1.25,13-4.71l-1.2-8a2.2,2.2,0,0,1,.14.18Z"/><path class="cls-3" d="M111.9,107.74c-5.44,0-9.67-.2-9.75-.2a.75.75,0,0,1-.71-.7l-1.27-19.1a.76.76,0,0,1,.29-.65l3.27-2.43a.78.78,0,0,1,.22-.12c.64-.2,15.8-5,22.47-4.11,5.38.72,9.39,3,12.25,6.86a.69.69,0,0,1,.14.33l2.07,13.8a.8.8,0,0,1-.15.56c-2.8,3.77-8.18,4.64-13.57,5A130,130,0,0,1,111.9,107.74Zm-9-1.67c3,.12,15.52.53,24.11-.58,5-.34,9.83-1.08,12.33-4.16l-2-13.3c-1.69-2.25-4.68-5.25-11.14-6.11-6-.79-20.24,3.56-21.7,4l-2.83,2.12Z"/><path class="cls-12" d="M76.58,104.76s13.39,5.64,27.28,1.93a146.24,146.24,0,0,1,.32-21.43c0-.29-12,.37-26.52,2.9C77.49,88.19,76.58,104.76,76.58,104.76Z"/><path class="cls-3" d="M93.77,108.72a49.25,49.25,0,0,1-17.48-3.27.77.77,0,0,1-.46-.73c.94-17.16.94-17.16,1.7-17.3,11.29-2,26.25-3.48,27.12-2.75a.77.77,0,0,1,.28.58,146.25,146.25,0,0,0-.32,21.38.75.75,0,0,1-.56.78A39.66,39.66,0,0,1,93.77,108.72Zm-16.41-4.46c2.47.92,13.91,4.78,25.71,1.86a154.05,154.05,0,0,1,.3-20.18,202.93,202.93,0,0,0-25.05,2.87C78.13,90.83,77.67,98.67,77.36,104.26Z"/><path class="cls-2" d="M122.69,92.56c-3.78.83-9.55,2.35-20.8,5-6.92.29-20.52,3.76-20.52,3.76s-10.93-4.88-13-3.06c-1.26,1.14-1.34,3.41-1.23,5,0,.68-1.14,4.1,5.31,4.69a16.61,16.61,0,0,0,7.78-1.63c6.28,3.14,17.71.77,20.44-.06,17.32,1.32,15,1.5,21.65-.92Z"/><path class="cls-8" d="M122.45,102l-.08,3.3c-6.66,2.41-4.34,2.25-21.67.92-2.72.83-14.15,3.21-20.43.06a16.61,16.61,0,0,1-7.78,1.63c-6.45-.59-5.26-4-5.31-4.68a11.9,11.9,0,0,1,0-2.14c.06,1.28.82,3.09,5.36,3.51A16.3,16.3,0,0,0,80.35,103c6.28,3.15,17.71.78,20.44-.06C118.11,104.24,115.79,104.41,122.45,102Z"/><path class="cls-3" d="M73.42,108.7c-.33,0-.67,0-1,0-2.56-.24-4.27-.91-5.22-2.07a3.93,3.93,0,0,1-.78-3.1c0-.09,0-.16,0-.22-.13-1.8,0-4.24,1.48-5.56,2.13-1.92,10.61,1.54,13.53,2.83,1.94-.49,13.9-3.43,20.34-3.71,5.76-1.37,10.07-2.43,13.42-3.25,3.18-.78,5.48-1.35,7.32-1.76a.83.83,0,0,1,.63.14.78.78,0,0,1,.29.57l.45,11.58a.75.75,0,0,1-.49.73c-1.06.39-1.91.74-2.66,1-4,1.64-5.37,2.2-19.95,1.09-2.94.86-14,3.14-20.52.13A18.09,18.09,0,0,1,73.42,108.7ZM69.91,98.59a1.48,1.48,0,0,0-1,.24c-1.07,1-1.08,3.13-1,4.34a2.77,2.77,0,0,1,0,.47,2.51,2.51,0,0,0,.44,2c.67.81,2.13,1.34,4.21,1.53a15.6,15.6,0,0,0,7.37-1.55.75.75,0,0,1,.67,0c6.09,3.05,17.41.66,19.89-.1a1.27,1.27,0,0,1,.28,0c14.35,1.1,15.52.62,19.4-1,.64-.26,1.35-.56,2.2-.87L122,93.49c-1.67.38-3.72.89-6.41,1.55-3.36.82-7.71,1.89-13.5,3.26l-.14,0c-6.7.28-19.8,3.6-20.36,3.74a.75.75,0,0,1-.49,0C76.92,100.17,72.07,98.59,69.91,98.59Z"/><polyline class="cls-10" points="125.91 88.1 111.25 91.63 111.27 106.72 126.12 106.36"/><polygon class="cls-11" points="126.12 106.35 111.27 106.72 111.25 91.64 113.85 91.01 113.86 100.39 126.31 100.29 126.12 106.35"/><path class="cls-3" d="M111.6,108.7a.74.74,0,0,1-.48-.17.76.76,0,0,1-.27-.53l-.91-15.87a.75.75,0,0,1,.56-.77l15.22-4a.75.75,0,1,1,.38,1.45l-14.63,3.84.83,14.46L126,105.61a.75.75,0,0,1,.16,1.49l-14.52,1.6Z"/><path class="cls-3" d="M167.82,108.51H17.18a1,1,0,1,1,0-2H167.82a1,1,0,0,1,0,2Z"/></svg>